<?xml version="1.0" standalone="no"?>
<!DOCTYPE svg PUBLIC "-//W3C//DTD SVG 20010904//EN"
 "http://www.w3.org/TR/2001/REC-SVG-20010904/DTD/svg10.dtd">
<svg version="1.0" xmlns="http://www.w3.org/2000/svg"
 width="260.000000pt" height="228.000000pt" viewBox="0 0 260.000000 228.000000"
 preserveAspectRatio="xMidYMid meet">

<g transform="translate(0.000000,228.000000) scale(0.100000,-0.100000)"
fill="#000000" stroke="none">
<path d="M1300 1995 c-1 -39 -3 -41 -65 -72 -63 -31 -65 -31 -112 -16 -59 18
-117 12 -178 -17 -25 -12 -47 -21 -49 -19 -1 2 -7 15 -13 29 -11 24 -12 24
-12 -12 -1 -21 -5 -38 -10 -38 -4 0 -28 -15 -51 -34 -41 -32 -45 -33 -67 -19
-27 18 -30 8 -6 -19 14 -16 15 -25 6 -58 -8 -32 -7 -42 4 -51 7 -7 16 -9 20
-6 3 4 12 2 20 -4 10 -9 13 -8 13 5 0 19 66 102 87 111 8 2 28 -2 45 -11 l30
-16 -27 37 c-26 33 -27 37 -12 53 15 14 25 15 89 4 67 -11 126 -6 155 11 6 4
30 3 53 -1 35 -6 53 -3 91 15 57 28 121 21 127 -12 7 -39 22 -39 22 -1 l0 39
53 -50 c29 -28 70 -56 92 -63 22 -7 49 -20 60 -30 33 -29 88 -54 125 -57 26
-2 44 -12 68 -40 29 -31 33 -42 27 -71 -4 -21 -3 -32 4 -28 5 3 12 -7 16 -24
4 -16 18 -46 32 -67 14 -20 31 -56 38 -79 7 -23 25 -58 40 -78 18 -24 23 -36
14 -36 -8 0 1 -9 19 -20 27 -16 32 -26 32 -56 0 -21 -10 -55 -24 -78 -13 -23
-27 -62 -31 -88 -6 -42 -5 -47 16 -53 26 -8 54 19 72 69 9 27 11 28 61 22 l51
-6 -35 19 c-34 18 -35 21 -35 81 -1 59 0 64 29 81 l31 19 -47 -6 c-46 -6 -47
-6 -54 22 -13 53 -43 103 -84 135 -38 31 -40 35 -40 86 0 30 -6 69 -14 88 -15
34 -14 34 20 55 19 12 34 23 34 25 0 2 -16 -1 -36 -6 -32 -9 -38 -8 -61 18
-51 57 -56 70 -44 105 l11 33 -28 -34 -28 -33 -41 21 c-23 11 -67 24 -97 27
-50 6 -58 11 -77 41 -24 38 -79 78 -121 88 -16 4 -28 8 -28 9 0 0 4 17 10 36
l9 35 -25 -32 c-22 -27 -29 -31 -50 -23 -13 5 -39 10 -59 12 -29 2 -37 7 -49
38 l-15 35 -1 -40z m-20 -94 c0 -12 -39 -25 -48 -16 -7 7 17 25 36 25 6 0 12
-4 12 -9z m318 -70 c24 -36 -4 -23 -55 25 l-48 46 45 -25 c24 -14 51 -34 58
-46z m-483 50 c17 -7 16 -8 -9 -15 -37 -9 -123 3 -105 15 17 11 87 10 114 0z
m668 -133 c22 -11 13 -29 -11 -22 -49 16 -72 27 -72 36 0 10 54 2 83 -14z
m165 -175 c14 -37 25 -93 18 -93 -10 0 -29 44 -36 83 -8 43 3 49 18 10z m102
-225 c35 -47 42 -82 12 -55 -25 23 -66 97 -53 97 6 0 24 -19 41 -42z m40 -278
c0 -14 -29 -70 -36 -70 -6 0 5 59 13 73 6 11 23 9 23 -3z"/>
<path d="M631 1870 c-1 -14 6 -53 15 -85 18 -64 33 -165 25 -165 -2 0 -14 8
-25 17 -12 10 -8 3 8 -14 16 -18 32 -30 36 -28 8 5 21 -5 40 -29 14 -18 14
-19 -10 -7 -22 11 -22 9 5 -14 l30 -26 -36 6 c-26 5 -39 2 -48 -9 -8 -10 -9
-16 -3 -16 6 0 14 5 17 10 13 21 35 9 50 -27 9 -21 30 -53 47 -70 l31 -32 -46
-42 c-26 -22 -50 -51 -53 -65 -6 -23 -7 -23 -38 -8 -17 9 -53 37 -80 63 -48
45 -49 45 -21 8 15 -21 53 -57 83 -80 50 -38 57 -48 73 -107 10 -36 18 -76 19
-90 0 -14 9 -43 20 -64 10 -22 17 -43 14 -47 -3 -5 -29 -9 -57 -10 -44 0 -48
-2 -27 -10 13 -5 33 -9 45 -8 11 1 28 1 37 0 19 -1 78 -60 78 -78 0 -23 61
-82 98 -94 48 -15 52 -19 41 -47 -6 -15 -17 -22 -36 -22 -15 0 -52 -5 -82 -11
-53 -11 -59 -10 -108 15 -66 33 -69 26 -6 -10 l46 -28 -34 -13 -34 -13 49 6
c27 3 77 0 111 -7 59 -11 61 -13 63 -43 0 -17 2 -105 3 -195 2 -144 4 -161 16
-145 8 10 18 18 23 17 5 -2 15 13 21 32 7 19 18 35 24 35 7 0 17 18 24 40 7
22 16 38 20 35 5 -2 18 17 30 43 62 134 74 145 137 135 44 -8 50 -12 61 -43
12 -36 17 -33 13 8 -1 20 2 22 24 16 15 -3 32 -1 40 6 11 8 20 8 35 1 32 -18
34 -13 5 13 l-28 24 32 6 c18 3 45 9 61 12 16 3 73 39 127 80 53 41 105 74
115 74 11 0 19 4 19 10 0 5 18 13 41 16 22 4 46 13 54 20 7 7 32 18 55 23 24
5 46 14 49 19 3 5 31 17 61 27 30 10 71 25 90 33 l35 16 -51 7 c-51 6 -168 53
-191 75 -7 7 -26 15 -43 19 -21 5 -30 13 -30 26 0 18 2 18 35 5 42 -18 46 -12
7 8 -16 8 -33 29 -41 52 -13 35 -12 38 10 55 30 23 12 25 -19 3 -26 -18 -24
-19 -46 23 -9 18 -36 46 -61 63 -26 18 -45 39 -45 49 0 10 -6 24 -14 30 -8 7
-17 35 -21 64 -4 29 -16 63 -26 76 -11 13 -19 37 -19 52 0 33 -6 36 -30 14
-15 -14 -25 -11 -103 25 -79 37 -86 43 -89 73 l-4 32 -12 -27 c-13 -31 -37
-36 -61 -14 -9 8 -29 17 -46 20 -28 6 -29 6 -6 -4 27 -12 84 -70 76 -78 -3 -3
-13 2 -24 12 -33 30 -82 31 -137 3 -54 -27 -80 -52 -66 -61 5 -3 22 8 37 24
32 34 39 35 95 18 31 -10 40 -18 40 -35 0 -12 -4 -25 -10 -28 -5 -3 -10 3 -10
15 0 12 -4 18 -10 15 -5 -3 -10 -21 -10 -40 0 -18 -3 -40 -6 -49 -8 -20 -34
-21 -34 -1 0 17 -25 20 -35 5 -3 -5 -15 -10 -25 -10 -10 0 -28 -12 -39 -26
-12 -15 -21 -23 -21 -18 0 17 29 52 71 85 33 26 43 29 50 18 8 -12 10 -12 19
1 14 21 8 54 -12 58 -20 4 -139 -100 -154 -135 -6 -14 -14 -22 -17 -17 -6 10
14 58 39 92 19 26 8 29 -44 11 -32 -11 -47 -44 -37 -82 5 -17 -1 -14 -29 15
-37 39 -52 77 -42 104 5 14 17 15 75 9 75 -7 113 6 176 61 32 28 31 28 -62
-11 -35 -14 -84 -26 -110 -27 -73 -1 -90 -11 -104 -60 -7 -24 -16 -47 -20 -52
-10 -11 -71 1 -95 19 -16 13 -14 13 19 0 45 -18 49 -12 7 10 -17 9 -36 27 -42
41 -10 20 -8 27 8 39 18 14 18 14 -8 15 -25 0 -28 4 -28 33 0 17 -9 43 -20 57
-27 34 -25 86 5 138 13 23 20 42 15 42 -5 0 -21 -25 -36 -55 -14 -31 -28 -54
-30 -52 -2 2 -10 32 -18 68 -8 35 -14 53 -15 39z m78 -228 c0 -30 -2 -33 -9
-17 -12 28 -12 67 0 60 6 -3 10 -23 9 -43z m661 -77 c0 -18 -31 -56 -119 -145
-66 -66 -126 -120 -134 -120 -46 0 -15 46 79 115 46 35 88 76 114 115 44 65
60 74 60 35z m134 -34 c27 -11 28 -13 14 -27 -14 -14 -19 -14 -44 -1 -16 8
-44 18 -61 22 -18 3 -33 11 -33 17 0 13 82 5 124 -11z m-40 -50 c22 -24 13
-41 -19 -41 -25 0 -51 33 -40 50 10 16 41 11 59 -9z m-54 -98 c1 -35 -171
-183 -214 -183 -21 0 -30 22 -22 54 8 31 108 162 154 202 l36 31 23 -46 c12
-25 23 -51 23 -58z m-581 77 c29 0 34 -15 11 -35 -18 -16 -20 -16 -44 9 -31
31 -35 52 -7 36 11 -5 29 -10 40 -10z m790 -21 c17 -49 14 -58 -14 -51 -27 8
-27 8 -19 52 8 39 19 38 33 -1z m-738 -7 c-38 -72 12 -154 126 -204 26 -12 79
-41 118 -65 62 -38 66 -43 40 -43 -43 1 -93 21 -152 62 -28 19 -69 39 -90 42
-53 10 -79 30 -93 70 -13 42 -1 100 31 140 24 30 36 29 20 -2z m669 4 c0 -25
-91 -135 -176 -213 -83 -76 -97 -97 -109 -163 -9 -47 -51 -122 -86 -156 -42
-40 -47 -12 -13 73 41 105 146 256 259 371 96 98 125 118 125 88z m-590 -91
l-1 -70 -19 24 c-23 26 -25 63 -9 110 17 48 29 21 29 -64z m200 67 c0 -16 -24
-32 -49 -32 -23 0 -24 1 -6 20 18 20 55 28 55 12z m-67 -52 c5 -4 -8 -31 -28
-59 -28 -39 -43 -51 -59 -49 -28 4 -35 68 -11 105 15 22 21 24 53 18 21 -4 41
-10 45 -15z m505 -10 c30 -29 37 -63 24 -134 -5 -34 -8 -78 -5 -99 3 -21 0
-66 -7 -99 -17 -79 -49 -110 -132 -131 -34 -9 -63 -15 -65 -14 -1 2 25 24 58
51 33 27 66 61 74 77 17 31 20 217 6 301 -11 66 8 85 47 48z m-814 -35 c-8
-31 1 -69 21 -89 14 -14 13 -19 -13 -55 l-29 -41 -12 58 c-11 58 -4 109 20
138 17 20 20 17 13 -11z m946 -75 c14 -11 22 -20 18 -20 -14 0 -58 23 -58 32
0 13 13 9 40 -12z m-222 -65 c9 -128 -39 -214 -150 -270 -39 -19 -80 -35 -91
-35 -17 0 -14 5 16 39 38 42 57 93 57 154 0 52 12 70 78 122 72 57 86 55 90
-10z m230 25 c38 -23 41 -30 10 -23 -23 4 -23 4 -3 -11 11 -9 24 -15 31 -12 6
2 11 -2 11 -10 0 -7 -4 -11 -9 -8 -4 3 -8 0 -8 -5 0 -6 6 -11 14 -11 7 0 20
-8 27 -17 9 -11 10 -14 2 -9 -13 7 -59 -12 -49 -21 3 -3 12 0 21 7 12 10 16 9
21 -4 9 -24 2 -28 -51 -30 -35 -1 -49 2 -56 15 -11 21 -12 159 -1 159 4 0 22
-9 40 -20z m-728 -55 c99 -77 110 -90 110 -129 0 -19 -4 -46 -10 -61 -12 -32
-26 -26 -97 44 -54 53 -90 117 -100 175 -5 33 -4 36 13 29 11 -5 48 -30 84
-58z m-136 -7 c8 -13 22 -58 31 -101 9 -43 18 -84 21 -92 3 -7 1 -16 -5 -20
-6 -3 -38 21 -71 55 -52 53 -60 66 -60 98 0 71 53 108 84 60z m951 -164 c-4
-25 -9 -33 -15 -24 -6 9 -10 7 -15 -9 -3 -11 -13 -21 -21 -21 -13 0 -13 4 2
29 10 17 23 27 31 24 9 -4 13 4 13 23 0 15 3 25 6 21 4 -3 3 -23 -1 -43z m-73
17 c16 -6 15 -9 -4 -39 -20 -31 -23 -33 -62 -26 -53 8 -56 11 -56 39 0 41 50
52 122 26z m-737 -71 c36 -37 44 -50 31 -50 -27 0 -73 31 -85 57 -27 59 -8 56
54 -7z m-165 -9 c-1 -12 -5 -10 -20 8 -26 30 -26 49 0 26 11 -10 20 -25 20
-34z m1088 30 c41 -11 76 -22 79 -24 7 -7 -275 -99 -285 -93 -5 3 -23 -9 -41
-26 -17 -17 -29 -23 -25 -14 4 12 0 16 -15 16 -24 0 -61 33 -61 55 0 30 38 55
85 55 41 0 45 -2 45 -24 0 -14 -12 -39 -27 -58 l-28 -33 45 36 c32 26 44 43
42 58 -2 12 1 21 7 21 12 0 10 -27 -2 -47 -5 -7 -5 -13 0 -13 12 0 59 62 67
88 9 27 20 27 114 3z m-128 -10 c0 -5 -9 -19 -21 -32 l-20 -24 17 33 c19 33
24 38 24 23z m-819 -80 c40 -16 79 -37 86 -46 9 -13 19 -16 40 -10 15 5 61 8
101 7 61 -2 80 2 122 24 49 26 100 27 100 4 0 -16 -81 -69 -122 -81 -88 -23
-391 54 -411 105 -5 12 0 26 9 26 1 0 35 -13 75 -29z m538 -134 c34 -9 46 -8
49 1 2 7 13 12 23 12 33 0 11 -19 -34 -30 -58 -15 -115 -40 -130 -58 -9 -12
-5 -12 18 2 29 17 29 17 7 0 -13 -10 -35 -19 -49 -20 -21 -2 -24 1 -20 17 5
17 3 18 -9 8 -8 -7 -28 -12 -44 -11 -16 0 -32 -4 -35 -9 -7 -10 -5 -10 37 -13
15 0 33 -7 40 -15 10 -10 10 -12 1 -7 -7 4 -13 3 -13 -2 0 -17 -35 -7 -71 21
-37 28 -55 35 -44 17 3 -5 -1 -10 -10 -10 -10 0 -15 7 -13 17 2 11 24 22 68
33 68 17 124 42 135 61 4 6 17 8 29 4 11 -4 41 -12 65 -18z m-432 -54 c-3 -27
-8 -59 -11 -73 -4 -14 3 -5 14 20 26 56 46 73 71 59 38 -20 21 -61 -115 -271
-20 -32 -39 -58 -42 -58 -3 0 -3 66 1 148 9 170 26 221 74 222 10 0 12 -11 8
-47z m423 -13 c-8 -5 -19 -10 -25 -10 -5 0 -3 5 5 10 8 5 20 10 25 10 6 0 3
-5 -5 -10z m-550 -10 c0 -13 -40 -13 -60 0 -11 7 -5 10 23 10 20 0 37 -4 37
-10z"/>
<path d="M586 1605 c-14 -15 -42 -57 -62 -94 -44 -80 -40 -77 -59 -61 -8 7
-15 8 -15 2 0 -5 7 -15 15 -22 11 -9 14 -23 10 -46 -17 -111 -14 -104 -45
-104 -17 0 -30 -4 -30 -10 0 -5 13 -10 29 -10 47 0 56 -22 27 -65 -14 -20 -28
-53 -32 -72 -9 -47 11 -214 29 -250 14 -27 14 -28 -11 -40 -27 -11 -27 -11 11
-12 26 -1 37 -5 37 -16 0 -8 5 -15 12 -15 6 0 9 -3 5 -6 -3 -3 1 -24 9 -47 14
-39 13 -43 -8 -72 l-22 -30 27 18 c37 24 40 23 60 -26 22 -55 141 -181 189
-201 21 -9 52 -16 69 -16 l31 0 -26 -34 c-33 -44 -33 -53 1 -28 l27 20 38 -26
c21 -14 41 -23 44 -20 3 3 7 26 9 52 3 42 1 47 -21 52 -19 5 -24 13 -24 37 0
28 -1 29 -13 13 -12 -17 -15 -17 -47 2 -19 11 -51 23 -70 27 -103 19 -114 30
-130 130 -6 40 -5 52 9 62 14 11 14 12 -5 13 -24 0 -66 57 -78 104 -5 20 -2
34 10 47 17 19 6 27 -12 9 -6 -6 -24 8 -52 39 -68 79 -70 89 -34 166 17 36 34
81 38 100 4 26 10 32 22 28 15 -6 15 -4 -1 14 -16 18 -16 26 -5 66 9 35 9 52
0 71 -8 18 -8 34 -2 52 6 14 10 38 10 54 0 34 39 75 87 91 18 6 33 17 33 25 0
18 -14 18 -53 -2 l-32 -17 24 27 c18 19 22 29 14 37 -9 9 -18 4 -37 -16z m-96
-452 c-7 -21 -19 -47 -26 -58 -14 -19 -14 -19 -14 3 0 26 39 107 47 99 3 -3
-1 -23 -7 -44z m31 -285 c7 -14 6 -18 -5 -18 -14 0 -46 47 -46 66 0 10 40 -28
51 -48z m100 -234 c9 -51 3 -56 -16 -11 -18 44 -19 60 -3 55 7 -3 16 -22 19
-44z m204 -177 l30 -16 -27 -1 c-29 0 -98 29 -98 41 0 10 60 -5 95 -24z"/>
<path d="M577 1379 c8 -8 16 -8 30 0 16 9 14 10 -11 11 -22 0 -27 -3 -19 -11z"/>
<path d="M2049 848 c0 -18 -4 -42 -9 -53 -7 -16 -9 -13 -15 23 -5 26 -13 42
-22 42 -11 0 -12 -13 -7 -67 l7 -68 -23 20 -23 20 8 -20 c19 -47 12 -59 -52
-93 -34 -18 -75 -50 -93 -72 -17 -21 -45 -48 -63 -59 -18 -11 -43 -38 -57 -61
-62 -104 -105 -130 -113 -67 l-3 32 -8 -31 -8 -31 -78 2 c-43 2 -84 6 -90 10
-6 3 -9 1 -8 -7 2 -9 -17 -15 -67 -19 -38 -3 -90 -16 -115 -27 -48 -23 -105
-29 -115 -12 -7 12 -45 -10 -45 -26 0 -11 23 -16 136 -30 57 -7 112 7 157 38
17 12 37 18 50 14 20 -5 22 -10 19 -56 -3 -32 0 -50 7 -50 6 0 11 8 11 18 0
28 13 41 48 46 17 4 45 8 61 11 24 4 34 -1 52 -22 13 -17 20 -21 16 -10 -22
61 -22 62 44 91 74 32 130 86 154 148 14 39 21 46 61 56 44 12 44 12 79 -26
l35 -37 -15 38 c-15 36 -15 40 2 55 10 10 29 30 42 47 18 23 29 29 54 27 l32
-2 -30 16 c-43 24 -45 31 -18 79 13 24 26 66 30 94 5 43 3 51 -11 51 -11 0
-16 -9 -17 -32z m-139 -238 c0 -5 -5 -10 -11 -10 -5 0 -7 5 -4 10 3 6 8 10 11
10 2 0 4 -4 4 -10z m-30 -29 c0 -5 -7 -11 -15 -15 -15 -5 -20 5 -8 17 9 10 23
9 23 -2z m-107 -100 c-6 -24 -61 -91 -75 -91 -12 0 14 44 50 83 31 32 32 32
25 8z m-453 -167 c0 -10 -69 -34 -97 -33 -27 1 -26 2 12 20 38 18 85 25 85 13z"/>
</g>
</svg>
